<?xml version="1.0" encoding="utf-8"?>
<!-- Generator: Adobe Illustrator 16.0.0, SVG Export Plug-In . SVG Version: 6.00 Build 0)  -->
<!DOCTYPE svg PUBLIC "-//W3C//DTD SVG 1.1//EN" "http://www.w3.org/Graphics/SVG/1.1/DTD/svg11.dtd">
<svg version="1.1" id="Layer_1" xmlns="http://www.w3.org/2000/svg" xmlns:xlink="http://www.w3.org/1999/xlink" x="0px" y="0px"
	 width="203px" height="195.125px" viewBox="0 0 203 195.125" enable-background="new 0 0 203 195.125" xml:space="preserve">
<g>
	<g>
		<g>
			<path fill="#959A9D" d="M193.755,0.606C148.563,0.986,103.264,0.04,59.366,0.02c-19.59,0-39.07,0.001-57.975,0.001H0.033
				l0.001,1.357C0.098,67.491,0.16,131.718,0.22,193.9l0.001,1.173l1.17-0.001c54.252-0.034,106.527-0.016,157.585,0.156
				c9.265,0.03,24.506,0.099,34.006,0.058c19.734-0.087-0.213-1.603-9.655-1.815c-59.282-1.351-124.076-1.1-176.487-0.66
				c-1.819,0.016-3.637,0.03-5.449,0.045l1.046,1.045C1.927,129.464,1.977,65.228,2.15,1.378L1.391,2.137
				c67.135,0.182,133.867,0.499,200,0.443l-1.201-1.202c0.047,57.311,0.375,114.167,1.313,170.474
				c0.107,6.472,0.543,33.842,1.055,16.229c0.521-18.033,0.155-53.719,0.104-61.531c-0.141-40.268-0.288-82.344-0.438-125.17
				l-0.002-0.839l-0.83,0.007C198.895,0.566,196.326,0.586,193.755,0.606z M201.775,9.922c0.19-0.84,0.59,5.426,0.35,6.491
				C201.936,17.252,201.535,10.986,201.775,9.922z"/>
		</g>
	</g>
</g>
</svg>
