<?xml version="1.0" encoding="UTF-8"?>
<svg width="72px" height="72px" viewBox="0 0 72 72" version="1.1" xmlns="http://www.w3.org/2000/svg" xmlns:xlink="http://www.w3.org/1999/xlink">
    <!-- Generator: Sketch 51 (57462) - http://www.bohemiancoding.com/sketch -->
    <title>Accordion Copy 122</title>
    <desc>Created with Sketch.</desc>
    <defs></defs>
    <g id="Accordion-Copy-122" stroke="none" stroke-width="1" fill="none" fill-rule="evenodd">
        <path d="M29.34375,37.2421875 C30.3593801,37.7578151 31.2773396,38.3945275 32.0976562,39.1523438 C32.9179729,39.91016 33.6171846,40.7539016 34.1953125,41.6835938 C34.7734404,42.6132859 35.2187484,43.6132759 35.53125,44.6835938 C35.8437516,45.7539116 36,46.8593693 36,48 L33,48 C33,46.7656188 32.7617211,45.601568 32.2851562,44.5078125 C31.8085914,43.414057 31.1640666,42.4609416 30.3515625,41.6484375 C29.5390584,40.8359334 28.585943,40.1914086 27.4921875,39.7148438 C26.398432,39.2382789 25.2343812,39 24,39 C22.7656188,39 21.601568,39.2382789 20.5078125,39.7148438 C19.414057,40.1914086 18.4609416,40.8359334 17.6484375,41.6484375 C16.8359334,42.4609416 16.1914086,43.414057 15.7148438,44.5078125 C15.2382789,45.601568 15,46.7656188 15,48 L12,48 C12,46.8593693 12.1562484,45.7539116 12.46875,44.6835938 C12.7812516,43.6132759 13.2265596,42.6132859 13.8046875,41.6835938 C14.3828154,40.7539016 15.0820271,39.91016 15.9023438,39.1523438 C16.7226604,38.3945275 17.6406199,37.7578151 18.65625,37.2421875 C17.5156193,36.3984333 16.621097,35.3359439 15.9726562,34.0546875 C15.3242155,32.7734311 15,31.4218821 15,30 C15,28.7656188 15.2382789,27.601568 15.7148438,26.5078125 C16.1914086,25.414057 16.8359334,24.4609416 17.6484375,23.6484375 C18.4609416,22.8359334 19.414057,22.1914086 20.5078125,21.7148438 C21.601568,21.2382789 22.7656188,21 24,21 C25.2343812,21 26.398432,21.2382789 27.4921875,21.7148438 C28.585943,22.1914086 29.5390584,22.8359334 30.3515625,23.6484375 C31.1640666,24.4609416 31.8085914,25.414057 32.2851562,26.5078125 C32.7617211,27.601568 33,28.7656188 33,30 C33,31.4218821 32.6757845,32.7734311 32.0273438,34.0546875 C31.378903,35.3359439 30.4843807,36.3984333 29.34375,37.2421875 Z M18,30 C18,30.8281291 18.1601546,31.6054651 18.4804688,32.3320312 C18.8007829,33.0585974 19.2304661,33.6914036 19.7695312,34.2304688 C20.3085964,34.7695339 20.9414026,35.1992171 21.6679688,35.5195312 C22.3945349,35.8398454 23.1718709,36 24,36 C24.8125041,36 25.5859338,35.8398454 26.3203125,35.5195312 C27.0546912,35.1992171 27.6914036,34.7695339 28.2304688,34.2304688 C28.7695339,33.6914036 29.1992171,33.0585974 29.5195312,32.3320312 C29.8398454,31.6054651 30,30.8281291 30,30 C30,29.1874959 29.8398454,28.4140662 29.5195312,27.6796875 C29.1992171,26.9453088 28.7695339,26.3085964 28.2304688,25.7695312 C27.6914036,25.2304661 27.0546912,24.8007829 26.3203125,24.4804688 C25.5859338,24.1601546 24.8125041,24 24,24 C23.1718709,24 22.3945349,24.1601546 21.6679688,24.4804688 C20.9414026,24.8007829 20.3085964,25.2304661 19.7695312,25.7695312 C19.2304661,26.3085964 18.8007829,26.9453088 18.4804688,27.6796875 C18.1601546,28.4140662 18,29.1874959 18,30 Z M60,21 L60,24 L39,24 L39,21 L60,21 Z M39,33 L60,33 L60,36 L39,36 L39,33 Z M39,45 L60,45 L60,48 L39,48 L39,45 Z" id="" fill="#B3B3B3"></path>
    </g>
</svg>